<svg aria-hidden="true" style="position: absolute; width: 0; height: 0; overflow: hidden;" version="1.1" xmlns="http://www.w3.org/2000/svg" xmlns:xlink="http://www.w3.org/1999/xlink">
<defs>
<symbol id="icon-dollar" viewBox="0 0 19 32">
<path fill="#c1c1c1" style="fill: var(--color1, #c1c1c1)" d="M10.049 25.237c1.875-0.088 3.169-0.773 3.882-2.056 0.373-0.658 0.559-1.42 0.559-2.286 0-1.371-0.504-2.412-1.513-3.125-0.581-0.417-1.557-0.811-2.928-1.184v8.651zM4.474 9.365c0 1.086 0.356 1.935 1.069 2.549 0.724 0.614 1.694 1.042 2.911 1.283v-7.73c-1.436 0.055-2.462 0.493-3.076 1.316-0.603 0.822-0.905 1.683-0.905 2.582zM1.513 9.563c0-1.667 0.609-3.169 1.826-4.507 1.228-1.338 2.944-2.018 5.148-2.039v-2.188h1.563v2.155c2.182 0.154 3.854 0.8 5.016 1.941 1.173 1.129 1.787 2.626 1.842 4.49h-2.878c-0.077-0.833-0.302-1.552-0.674-2.155-0.691-1.107-1.793-1.689-3.306-1.743v7.993c2.544 0.713 4.271 1.382 5.181 2.007 1.48 1.031 2.22 2.555 2.22 4.572 0 2.917-0.948 4.989-2.845 6.217-1.053 0.68-2.571 1.129-4.556 1.349v3.191h-1.563v-3.191c-3.191-0.208-5.356-1.338-6.497-3.388-0.625-1.107-0.938-2.604-0.938-4.49h2.911c0.088 1.502 0.323 2.599 0.707 3.289 0.68 1.239 1.941 1.935 3.783 2.089v-8.964c-2.368-0.45-4.117-1.201-5.247-2.253s-1.694-2.511-1.694-4.375z"></path>
</symbol>
<symbol id="icon-euro" viewBox="0 0 28 32">
<path fill="#c1c1c1" style="fill: var(--color1, #c1c1c1)" d="M1.875 19.766l0.82-2.773h3.828c-0.026-0.534-0.039-1.081-0.039-1.641 0-0.482 0.013-0.964 0.039-1.445h-4.648l0.82-2.773h4.141c0.443-2.383 1.27-4.447 2.48-6.191 2.031-2.943 4.837-4.414 8.418-4.414 3.047 0 5.41 0.957 7.090 2.871 1.693 1.914 2.63 4.089 2.813 6.523h-3.184c-0.352-1.849-1.068-3.314-2.149-4.395s-2.591-1.621-4.531-1.621c-2.383 0-4.303 0.996-5.762 2.988-0.807 1.094-1.387 2.506-1.738 4.238h10.898l-0.82 2.773h-10.469c-0.039 0.664-0.059 1.367-0.059 2.109 0 0.339 0.007 0.664 0.020 0.977h11.328l-0.82 2.773h-10.215c0.313 1.706 0.866 3.184 1.66 4.434 1.315 2.083 3.281 3.125 5.898 3.125 2.409 0 4.245-1.1 5.508-3.301 0.664-1.159 1.159-2.682 1.484-4.57h3.183c-0.286 3.021-1.23 5.553-2.832 7.598-1.914 2.461-4.492 3.691-7.734 3.691-2.799 0-5.15-1.009-7.051-3.027-1.797-1.901-2.949-4.551-3.457-7.949h-4.922z"></path>
</symbol>
<symbol id="icon-ruble" viewBox="0 0 23 32">
<path fill="#c1c1c1" style="fill: var(--color1, #c1c1c1)" d="M4.139 32v-30.464h8.021c3.726 0 6.485 0.754 8.277 2.261 1.82 1.508 2.731 3.698 2.731 6.571 0 1.934-0.441 3.598-1.323 4.992-0.882 1.365-2.19 2.418-3.925 3.157-1.707 0.74-3.826 1.109-6.357 1.109h-3.584v12.373h-3.84zM0.427 26.197v-2.773h14.592v2.773h-14.592zM0.427 19.627v-3.243h9.771v3.243h-9.771zM11.008 16.384c1.735 0 3.2-0.185 4.395-0.555 1.223-0.37 2.162-0.981 2.816-1.835s0.981-2.020 0.981-3.499c0-1.934-0.597-3.371-1.792-4.309s-3.058-1.408-5.589-1.408h-3.84v11.605h3.029z"></path>
</symbol>
</defs>
</svg>
